<?xml version="1.0" standalone="no"?>
<!DOCTYPE svg PUBLIC "-//W3C//DTD SVG 20010904//EN"
 "http://www.w3.org/TR/2001/REC-SVG-20010904/DTD/svg10.dtd">
<svg version="1.0" xmlns="http://www.w3.org/2000/svg"
 width="656.000000pt" height="656.000000pt" viewBox="0 0 656.000000 656.000000"
 preserveAspectRatio="xMidYMid meet">
<metadata>
Created by potrace 1.14, written by Peter Selinger 2001-2017
</metadata>
<g transform="translate(0.000000,656.000000) scale(0.100000,-0.100000)"
fill="#000000" stroke="none">
<path d="M3178 6395 c-2 -1 -39 -5 -82 -9 -44 -4 -82 -8 -85 -10 -3 -2 -33 -7
-66 -11 -32 -3 -62 -8 -65 -10 -3 -2 -25 -6 -49 -10 -24 -3 -54 -10 -67 -16
-14 -5 -28 -8 -32 -7 -8 1 -59 -10 -82 -19 -8 -4 -17 -7 -20 -7 -3 -1 -11 -5
-17 -9 -7 -5 -13 -6 -13 -3 0 6 -140 -42 -240 -82 -240 -96 -484 -239 -697
-408 -134 -107 -355 -331 -422 -428 -8 -12 -18 -23 -22 -26 -10 -7 -193 -282
-211 -316 -74 -142 -136 -274 -153 -324 -1 -3 -7 -18 -14 -35 -6 -16 -15 -41
-20 -55 -5 -14 -12 -34 -17 -45 -4 -11 -8 -26 -10 -32 -1 -7 -11 -41 -22 -75
-11 -35 -30 -108 -42 -163 -30 -136 -29 -131 -35 -184 -3 -25 -8 -59 -11 -76
-12 -71 -15 -121 -18 -315 -2 -113 1 -236 5 -275 15 -126 21 -168 25 -189 2
-12 7 -37 9 -56 3 -19 8 -46 11 -60 3 -14 7 -32 9 -40 2 -8 8 -35 15 -60 7
-25 14 -52 16 -60 24 -108 102 -315 165 -440 27 -54 27 -92 0 -75 -14 8 -214
9 -280 1 -123 -15 -163 -23 -271 -58 -201 -64 -276 -129 -350 -303 -21 -49
-21 -190 1 -249 10 -28 25 -70 34 -94 18 -51 18 -64 12 -642 -3 -239 -2 -462
3 -495 4 -33 11 -85 15 -115 20 -158 189 -311 383 -347 46 -9 334 -7 422 2 64
7 201 34 270 54 159 45 163 45 248 -1 115 -62 303 -84 451 -53 86 18 211 57
211 66 0 10 52 -5 81 -24 13 -9 44 -20 69 -26 25 -5 59 -13 75 -17 41 -9 254
-11 285 -2 165 47 170 48 210 27 41 -22 116 -27 190 -15 25 4 86 9 135 11 98
4 126 8 188 30 55 19 55 19 123 -12 64 -30 73 -32 121 -36 18 -1 33 -5 33 -8
0 -10 142 -2 191 11 67 18 119 36 169 61 77 38 218 24 247 -25 8 -13 60 -33
113 -44 43 -9 364 -8 377 2 8 5 13 4 13 -3 0 -7 4 -10 8 -7 5 3 23 8 40 11 17
3 77 23 134 46 110 43 159 51 223 36 58 -13 56 -12 100 -32 92 -41 210 -58
395 -59 128 0 171 3 295 19 48 7 129 29 174 47 14 6 31 12 38 14 57 12 241
157 303 239 93 122 156 319 158 491 1 80 -17 210 -35 254 -3 8 -8 23 -9 32 -6
30 -56 132 -85 175 l-29 42 30 47 c33 52 57 119 64 177 3 21 8 42 11 47 10 16
13 213 4 275 -12 90 -62 235 -80 235 -4 0 -10 11 -13 24 -13 53 -157 159 -235
173 -14 2 -42 8 -61 12 -19 4 -103 9 -185 10 -82 1 -150 3 -151 4 -1 1 11 29
28 62 29 61 106 247 113 275 3 8 18 60 34 115 27 89 64 250 76 330 2 17 6 46
9 65 22 144 29 483 13 625 -11 101 -24 197 -32 235 -3 14 -8 41 -11 60 -28
158 -114 414 -197 590 -22 47 -41 87 -41 90 -1 3 -16 30 -34 61 -17 31 -32 59
-32 63 0 4 -4 12 -10 19 -5 7 -41 59 -78 117 -65 99 -136 199 -151 210 -4 3
-24 28 -46 55 -44 56 -240 252 -301 302 -153 125 -349 263 -372 263 -7 0 -12
4 -12 9 0 5 -15 14 -32 22 -18 7 -35 16 -38 19 -9 12 -241 121 -340 160 -113
44 -329 108 -425 124 -16 3 -41 8 -55 10 -14 3 -42 8 -62 11 -21 3 -53 7 -70
10 -81 13 -146 17 -335 20 -111 2 -203 2 -205 0z"/>
</g>
</svg>
