<?xml version="1.0" encoding="UTF-8" standalone="no"?>

<!--
   This file is part of WebDarts.
   WebDarts is free software: you can redistribute it and/or modify it under the terms of the GNU Affero General Public License as published by the Free Software Foundation, either version 3 of the License, or (at your option) any later version.
   WebDarts is distributed in the hope that it will be useful, but WITHOUT ANY WARRANTY; without even the implied warranty of MERCHANTABILITY or FITNESS FOR A PARTICULAR PURPOSE. See the GNU Affero General Public License for more details.
   You should have received a copy of the GNU Affero General Public License along with WebDarts. If not, see <https://www.gnu.org/licenses/>. 
-->

<svg
   width="43.337009mm"
   height="41.26556mm"
   viewBox="0 0 43.337009 41.26556"
   version="1.1"
   id="svg1933"
   xmlns="http://www.w3.org/2000/svg"
   xmlns:svg="http://www.w3.org/2000/svg">
  <defs
     id="defs1930" />
  <g
     id="layer1"
     transform="translate(-57.615393,-100.18078)">
    <g
       id="g2811"
       transform="translate(38.304039,22.943608)">
      <path
         id="path1824"
         style="fill:#ffffff;fill-opacity:1;stroke:none;stroke-width:0;stroke-linecap:round"
         d="m 41.36285,77.237663 c -0.145745,0.0014 -0.291555,0.0055 -0.437183,0.0124 -5.50668,0.183126 -10.846469,3.048507 -13.99191,7.580933 -3.575981,4.98277 -4.270959,11.852987 -1.754415,17.448034 0.06952,0.36806 0.785047,1.11034 0.07441,0.91157 -1.540852,-0.11555 -3.148476,0.13613 -4.541325,0.80409 -1.256429,0.72629 -1.808848,2.45134 -1.066085,3.73362 0.321172,0.9937 0.03492,2.05866 0.109037,3.08456 -0.0038,1.8782 -0.184254,3.7997 0.170533,5.64824 0.521609,1.42883 2.127496,2.15734 3.579109,2.00349 1.408352,0.0484 2.836108,-0.14262 4.151685,-0.63252 0.484737,-0.10836 0.844993,0.13839 1.229899,0.37673 1.285423,0.49631 2.776622,0.31697 4.025594,-0.18707 0.338663,-0.24241 0.660794,0.268 1.03973,0.2651 1.165621,0.33613 2.432366,0.23026 3.563607,-0.18552 0.714912,0.6266 1.680737,0.059 2.517675,0.18138 0.542043,0.0469 1.087957,-0.25959 1.552877,-0.32556 1.200579,0.81013 2.779454,0.58743 3.974435,-0.11317 0.509707,0.008 1.085366,-0.15805 1.433504,0.32608 0.989184,0.56504 2.162533,0.19956 3.236495,0.28525 0.733077,-0.002 1.357774,-0.47568 2.02985,-0.62322 0.561415,-0.0683 1.100892,0.0627 1.574064,0.34779 1.513957,0.40657 3.139337,0.37523 4.673617,0.0977 1.724968,-0.34486 3.250537,-1.58176 3.785815,-3.28145 0.673328,-1.71676 0.362006,-3.79191 -0.717786,-5.23069 0.633703,-0.65803 0.699142,-1.68021 0.7891,-2.55333 0.08864,-1.53911 -0.515479,-3.4275 -2.174028,-3.8685 -0.875197,-0.24144 -1.795194,-0.10844 -2.691309,-0.1695 2.683412,-5.222771 2.522579,-11.758808 -0.404109,-16.847548 -2.880243,-5.189045 -8.494894,-8.712654 -14.422376,-9.038725 -0.435749,-0.03439 -0.87328,-0.0542 -1.310514,-0.05013 z m 14.565002,26.071797 c 0.02565,0.004 0.05961,0.0245 0.10542,0.0656 0.572328,0.51665 -0.712913,1.21911 -0.237195,0.28473 0.06712,-0.0966 0.02062,-0.3693 0.131775,-0.35036 z m -34.934818,6.22442 c 0.07997,0.002 0.172139,0.0319 0.280603,0.0971 0.517342,0.70745 -0.505842,0.98278 -0.802018,0.39016 0.149084,-0.25654 0.281495,-0.49437 0.521415,-0.48731 z" />
      <path
         id="path743"
         style="fill:#ececec;fill-opacity:1;stroke:none;stroke-width:0;stroke-linecap:round"
         d="m 39.071831,78.788396 -4.96094,1.611788 7.56905,14.85439 z m 2.60811,16.466178 7.56853,-14.85439 -4.96094,-1.611788 z m 0,0 14.85439,-7.56853 -3.06597,-4.219897 z m 0,0 16.46617,2.60811 v -5.215702 z m 0,0 11.78842,11.788946 3.06597,-4.2199 z m 0,0 2.60759,16.466696 4.96094,-1.61179 z m 0,0 -7.56905,14.854906 4.96094,1.61179 z m 0,0 -14.85491,7.569046 3.06596,4.2199 z m 0,0 -16.4667,-2.607592 v 5.215702 z m 0,0 -11.78895,-11.788427 -3.06596,4.219897 z" />
      <path
         id="path745"
         style="fill:#000000;fill-opacity:0.919158;stroke:none;stroke-width:0;stroke-linecap:round"
         d="m 39.071511,78.788491 2.60811,16.466179 2.60811,-16.466179 z m 2.60811,16.466179 11.78895,-11.788428 -4.2199,-3.065963 z m 0,0 16.4667,-2.60811 -1.61179,-4.96042 z m 0,0 14.85491,7.56905 1.61179,-4.960941 z m 0,0 7.56905,14.85491 4.2199,-3.06597 z m 0,0 -2.60811,16.46669 h 5.21622 z m 0,0 -11.78842,11.78894 4.21989,3.06597 z m 0,0 -16.46618,2.608109 1.61179,4.960941 z m 0,0 -14.85439,-7.56853 -1.61179,4.96042 z m 0,0 -7.56853,-14.854391 -4.21989,3.065963 z" />
      <path
         style="fill:#ff0000;fill-opacity:0.509737;stroke:#ffffff;stroke-width:0;stroke-linecap:round"
         d="m 51.054151,104.6292 a 13.450969,13.450969 0 0 1 -3.35276,2.44378 l 0.71985,1.41335 a 15.044068,15.044068 0 0 0 3.75171,-2.73834 z"
         id="path747" />
      <path
         id="circle749"
         style="fill:#008000;fill-opacity:1;stroke:none;stroke-width:17.0969;stroke-linecap:round;stroke-dasharray:none;stroke-opacity:1"
         d="m 39.299927,80.241614 a 15.044068,15.044068 0 0 0 -4.529956,1.451591 l 0.720886,1.414384 a 13.450969,13.450969 0 0 1 4.061251,-1.288811 l -0.250114,-1.577164 a 15.044068,15.044068 0 0 0 -0.0016,0 z m 4.750614,0.04393 -0.249597,1.577681 a 13.450969,13.450969 0 0 1 4.009574,1.360124 l 0.725538,-1.424719 a 15.044068,15.044068 0 0 0 -4.485515,-1.513086 z m -13.137699,4.20181 A 15.044068,15.044068 0 0 0 28.118697,88.345 l 1.413867,0.720886 a 13.450969,13.450969 0 0 1 2.499073,-3.45922 z m 21.397143,0.136943 -1.123962,1.124479 a 13.450969,13.450969 0 0 1 2.418974,3.429765 l 1.420585,-0.72347 a 15.044068,15.044068 0 0 0 -2.715597,-3.830774 z m -11.962577,2.218986 a 8.3703108,8.3703108 0 0 0 -2.547648,0.796851 l 0.705383,1.384411 a 6.8128479,6.8128479 0 0 1 2.085661,-0.644922 z m 2.658236,0.03979 -0.24288,1.532723 a 6.8128479,6.8128479 0 0 1 2.036052,0.716752 l 0.706934,-1.386479 a 8.3703108,8.3703108 0 0 0 -2.500106,-0.862996 z m -7.381462,2.316138 a 8.3703108,8.3703108 0 0 0 -1.559078,2.175577 l 1.384412,0.705384 a 6.8128479,6.8128479 0 0 1 1.275374,-1.780253 z m 11.967228,0.14366 -1.096574,1.096574 a 6.8128479,6.8128479 0 0 1 1.198894,1.750797 l 1.380277,-0.702799 A 8.3703108,8.3703108 0 0 0 47.59141,89.342867 Z m -20.924304,3.534151 a 15.044068,15.044068 0 0 0 -0.167948,2.24069 15.044068,15.044068 0 0 0 0.218074,2.506824 l 1.570447,-0.248564 a 13.450969,13.450969 0 0 1 -0.195854,-2.25826 13.450969,13.450969 0 0 1 0.151929,-1.990576 z m 29.75684,0.04289 -1.577165,0.249597 a 13.450969,13.450969 0 0 1 0.147278,1.948201 13.450969,13.450969 0 0 1 -0.188102,2.215886 l 1.570447,0.24908 a 15.044068,15.044068 0 0 0 0.210323,-2.464966 15.044068,15.044068 0 0 0 -0.162781,-2.197798 z m -14.74432,0.859379 a 1.4754376,1.4754376 0 0 0 -1.475362,1.475362 1.4754376,1.4754376 0 0 0 1.475362,1.475362 1.4754376,1.4754376 0 0 0 1.475363,-1.475362 1.4754376,1.4754376 0 0 0 -1.475363,-1.475362 z m -8.411372,0.143143 a 8.3703108,8.3703108 0 0 0 -0.0956,1.195276 8.3703108,8.3703108 0 0 0 0.135392,1.46296 l 1.541508,-0.244429 a 6.8128479,6.8128479 0 0 1 -0.119889,-1.218531 6.8128479,6.8128479 0 0 1 0.07493,-0.95188 z m 16.555578,0.04237 -1.529622,0.242363 a 6.8128479,6.8128479 0 0 1 0.06201,0.910538 6.8128479,6.8128479 0 0 1 -0.10387,1.178223 l 1.539441,0.243396 a 8.3703108,8.3703108 0 0 0 0.121439,-1.421619 8.3703108,8.3703108 0 0 0 -0.0894,-1.152901 z m 3.674711,7.312216 a 13.450969,13.450969 0 0 1 -2.444295,3.35225 l 1.118795,1.1188 a 15.044068,15.044068 0 0 0 2.738334,-3.75171 z m -23.850224,0.10852 -1.415417,0.72089 a 15.044068,15.044068 0 0 0 2.816882,3.77858 l 1.12448,-1.12448 a 13.450969,13.450969 0 0 1 -2.525945,-3.37499 z" />
      <path
         id="circle751"
         style="fill:#d40000;fill-opacity:1;stroke:none;stroke-width:9.02371;stroke-linecap:round;stroke-dasharray:none;stroke-opacity:1"
         d="m 41.542684,80.073665 a 15.044068,15.044068 0 0 0 -2.24069,0.167949 l 0.250114,1.577681 a 13.450969,13.450969 0 0 1 1.990576,-0.152445 13.450969,13.450969 0 0 1 2.25826,0.19637 l 0.249597,-1.577681 a 15.044068,15.044068 0 0 0 -2.507857,-0.211874 z m -6.772713,1.61954 a 15.044068,15.044068 0 0 0 -3.857129,2.794144 l 1.118795,1.119312 a 13.450969,13.450969 0 0 1 3.45922,-2.499072 z m 13.766085,0.10542 -0.725538,1.424719 a 13.450969,13.450969 0 0 1 3.374988,2.525427 l 1.131197,-1.131197 a 15.044068,15.044068 0 0 0 -3.780647,-2.818949 z m -6.993372,4.949052 a 8.3703108,8.3703108 0 0 0 -1.195276,0.0956 l 0.243396,1.53634 a 6.8128479,6.8128479 0 0 1 0.95188,-0.07493 6.8128479,6.8128479 0 0 1 1.22008,0.111105 l 0.24288,-1.532723 a 8.3703108,8.3703108 0 0 0 -1.46296,-0.135392 z m -3.742924,0.892452 a 8.3703108,8.3703108 0 0 0 -2.175578,1.559078 l 1.100708,1.100708 a 6.8128479,6.8128479 0 0 1 1.780253,-1.275375 z m 7.70599,0.105936 -0.706934,1.386479 a 6.8128479,6.8128479 0 0 1 1.69602,1.306897 l 1.096574,-1.096574 a 8.3703108,8.3703108 0 0 0 -2.08566,-1.596802 z m -17.387053,0.59893 a 15.044068,15.044068 0 0 0 -1.451591,4.532023 l 1.576648,0.250114 a 13.450969,13.450969 0 0 1 1.28881,-4.061251 z m 26.906885,0.110071 -1.420585,0.72347 a 13.450969,13.450969 0 0 1 1.241784,3.990971 l 1.577165,-0.249597 a 15.044068,15.044068 0 0 0 -1.398364,-4.464844 z m -20.960478,2.919718 a 8.3703108,8.3703108 0 0 0 -0.79685,2.547648 l 1.53634,0.243396 a 6.8128479,6.8128479 0 0 1 0.644922,-2.08566 z m 15.008903,0.112655 -1.380277,0.702799 a 6.8128479,6.8128479 0 0 1 0.60048,2.016932 l 1.529622,-0.242363 a 8.3703108,8.3703108 0 0 0 -0.749825,-2.477368 z m -7.394381,2.988448 a 0.7787326,0.7787326 0 0 0 -0.778763,0.778764 0.7787326,0.7787326 0 0 0 0.778763,0.778764 0.7787326,0.7787326 0 0 0 0.778764,-0.778764 0.7787326,0.7787326 0 0 0 -0.778764,-0.778764 z m 6.572726,1.820044 a 6.8128479,6.8128479 0 0 1 -0.667143,1.967839 l 1.388029,0.70745 a 8.3703108,8.3703108 0 0 0 0.818555,-2.431893 z m 6.553605,1.037663 a 13.450969,13.450969 0 0 1 -1.307414,3.943426 l 1.412834,0.71934 a 15.044068,15.044068 0 0 0 1.465027,-4.413686 z m -26.518278,0.04237 -1.570447,0.248564 a 15.044068,15.044068 0 0 0 1.51567,4.481902 l 1.415417,-0.72089 a 13.450969,13.450969 0 0 1 -1.36064,-4.009576 z" />
      <rect
         style="fill:#ffffff;stroke:#ffffff;stroke-width:1.8;stroke-linecap:square"
         id="rect859"
         width="0.91027308"
         height="1.1590889"
         x="55.305645"
         y="103.13634"
         ry="0.45513654" />
      <path
         style="fill:#008000;fill-opacity:0.509737;stroke:none;stroke-width:0;stroke-linecap:round"
         d="m 47.585111,98.263687 a 6.8128479,6.8128479 0 0 1 -1.22524,1.6707 l 1.10174,1.102263 a 8.3703108,8.3703108 0 0 0 1.51153,-2.065513 z"
         id="path775" />
      <path
         style="fill:#ff0000;fill-opacity:0.509737;stroke:#ffffff;stroke-width:0;stroke-linecap:round"
         d="m 46.359871,99.934387 a 6.8128479,6.8128479 0 0 1 -1.67122,1.225253 l 0.70745,1.38855 a 8.3703108,8.3703108 0 0 0 2.06551,-1.51154 z"
         id="path777" />
      <path
         style="fill:#008000;fill-opacity:0.509737;stroke:#ffffff;stroke-width:0;stroke-linecap:round"
         d="m 47.701391,107.07298 a 13.450969,13.450969 0 0 1 -3.94292,1.30793 l 0.24909,1.57044 a 15.044068,15.044068 0 0 0 4.41368,-1.46502 z"
         id="path779" />
      <path
         style="fill:#008000;fill-opacity:0.509737;stroke:#ffffff;stroke-width:0;stroke-linecap:round"
         d="m 44.688651,101.15964 a 6.8128479,6.8128479 0 0 1 -1.96835,0.66714 l 0.24391,1.53996 a 8.3703108,8.3703108 0 0 0 2.43189,-0.81855 z"
         id="path781" />
      <path
         style="fill:#ff0000;fill-opacity:0.509737;stroke:none;stroke-width:0;stroke-linecap:round"
         d="m 34.849461,96.336157 -1.54151,0.24443 a 8.3703108,8.3703108 0 0 0 0.863,2.50011 l 1.39681,-0.71159 a 6.8128479,6.8128479 0 0 1 -0.7183,-2.03295 z"
         id="path809" />
      <path
         style="fill:#008000;fill-opacity:0.509737;stroke:none;stroke-width:0;stroke-linecap:round"
         d="m 35.567761,98.369107 -1.39681,0.71159 a 8.3703108,8.3703108 0 0 0 1.5968,2.085663 l 1.10174,-1.10174 a 6.8128479,6.8128479 0 0 1 -1.30173,-1.695513 z"
         id="path813" />
      <path
         style="fill:#ff0000;fill-opacity:0.509737;stroke:none;stroke-width:0;stroke-linecap:round"
         d="m 32.174171,104.76045 -1.12448,1.12448 a 15.044068,15.044068 0 0 0 3.83026,2.71508 l 0.72398,-1.42006 a 13.450969,13.450969 0 0 1 -3.42976,-2.4195 z"
         id="path815" />
      <path
         style="fill:#ff0000;fill-opacity:0.509737;stroke:none;stroke-width:0;stroke-linecap:round"
         d="m 36.869491,100.06462 -1.10174,1.10174 a 8.3703108,8.3703108 0 0 0 2.14457,1.4826 l 0.70332,-1.38132 a 6.8128479,6.8128479 0 0 1 -1.74615,-1.20302 z"
         id="path817" />
      <path
         style="fill:#008000;fill-opacity:0.509737;stroke:none;stroke-width:0;stroke-linecap:round"
         d="m 35.603931,107.17995 -0.72398,1.42006 a 15.044068,15.044068 0 0 0 4.46484,1.39888 l 0.2496,-1.57716 a 13.450969,13.450969 0 0 1 -3.99046,-1.24178 z"
         id="path819" />
      <path
         style="fill:#008000;fill-opacity:0.509737;stroke:none;stroke-width:0;stroke-linecap:round"
         d="m 38.615641,101.26764 -0.70332,1.38132 a 8.3703108,8.3703108 0 0 0 2.47737,0.74982 l 0.24339,-1.53582 a 6.8128479,6.8128479 0 0 1 -2.01744,-0.59532 z"
         id="path821" />
      <path
         style="fill:#ff0000;fill-opacity:0.509737;stroke:none;stroke-width:0;stroke-linecap:round"
         d="m 43.758471,108.38091 a 13.450969,13.450969 0 0 1 -2.21588,0.18758 13.450969,13.450969 0 0 1 -1.9482,-0.14676 l -0.2496,1.57716 a 15.044068,15.044068 0 0 0 2.1978,0.16279 15.044068,15.044068 0 0 0 2.46497,-0.21033 z"
         id="path823" />
      <path
         style="fill:#ff0000;fill-opacity:0.509737;stroke:none;stroke-width:0;stroke-linecap:round"
         d="m 42.720301,101.82678 a 6.8128479,6.8128479 0 0 1 -1.17771,0.10387 6.8128479,6.8128479 0 0 1 -0.90951,-0.0677 l -0.24339,1.53582 a 8.3703108,8.3703108 0 0 0 1.1529,0.0894 8.3703108,8.3703108 0 0 0 1.42162,-0.12144 z"
         id="path825" />
      <path
         id="path833"
         style="fill:#1a1a1a;fill-opacity:1;stroke:#ffffff;stroke-width:0;stroke-linecap:round"
         d="m 41.542561,78.291777 a 16.825862,16.825862 0 0 0 -16.82548,16.82601 16.825862,16.825862 0 0 0 16.82548,16.826013 16.825862,16.825862 0 0 0 16.82601,-16.826013 16.825862,16.825862 0 0 0 -16.82601,-16.82601 z m 0,1.782109 a 15.044079,15.044079 0 0 1 15.04442,15.043901 15.044079,15.044079 0 0 1 -15.04442,15.043893 15.044079,15.044079 0 0 1 -15.04389,-15.043893 15.044079,15.044079 0 0 1 15.04389,-15.043901 z" />
      <path
         id="path1614"
         style="color:#000000;font-weight:bold;font-size:8.46667px;font-family:Coaster;-inkscape-font-specification:'Coaster Bold';text-align:center;text-anchor:middle;fill:#000000;stroke:none;stroke-width:2;stroke-linecap:butt"
         d="m 41.853259,96.120748 c -0.005,4.36e-4 -0.02107,0.0031 -0.03669,0.0057 -0.01684,0.0013 -0.03362,0.0035 -0.05013,0.0072 -0.03368,0.0022 -0.06313,0.004 -0.130225,0.0078 v -0.0015 c -0.364421,0.02006 -0.71745,0.06638 -1.052649,0.218075 -0.07609,-0.05135 -0.15462,-0.09239 -0.233577,-0.119373 l -0.01189,-0.0041 -0.01034,-0.0036 c -0.361617,-0.114456 -0.495004,-0.08372 -0.741557,-0.08372 -0.457761,0 -0.899472,0.06321 -1.313098,0.253214 -0.0062,0.0028 -0.01137,0.01007 -0.01757,0.01292 l -0.03411,-0.02635 -0.154513,-0.05736 c -0.218082,-0.08131 -0.419886,-0.149356 -0.705383,-0.165365 l -0.08217,-0.0036 -0.08062,0.0072 c -0.222494,0.02111 -0.38915,0.03218 -0.476973,0.03617 l -0.06615,0.0041 -0.06201,0.01137 c -0.219257,0.03652 -0.443247,0.115012 -0.669727,0.235644 l -0.01602,-0.01292 -0.01602,-0.01137 c -0.07934,-0.05795 -0.08919,-0.07095 -0.194303,-0.137459 l -0.220659,-0.138493 -0.264583,-0.02119 c -0.121437,-0.0096 -0.237803,-0.01137 -0.380855,-0.01137 v 5.17e-4 c -0.380268,10e-7 -0.761797,0.05088 -1.136882,0.148311 -0.281817,0.07262 -0.549212,0.162111 -0.821655,0.365353 -0.272443,0.203241 -0.545186,0.614624 -0.545186,1.029394 0,0.195503 0.05097,0.359908 0.11007,0.490926 0.149974,0.336127 0.251454,0.720871 0.295073,1.163237 1.36e-4,9.75e-4 -1.33e-4,0.0026 0,0.0036 0.051,0.651422 0.08758,1.149191 0.110071,1.474851 l 0.0021,0.006 v 0.008 c 0.06966,0.83783 0.125847,1.47945 0.168465,1.93012 0.0213,0.22533 0.03844,0.40189 0.05374,0.5364 0.0153,0.13452 -0.0068,0.12691 0.06046,0.36948 v 0.004 l 0.0021,0.004 c 0.09334,0.32495 0.377689,0.65515 0.681612,0.80873 0.19434,0.0982 0.380104,0.14458 0.557072,0.16537 v 3.65714 H 48.88232 v -4.0597 c 0.08126,-0.0406 0.161026,-0.0842 0.238745,-0.13126 h 0.0021 c 0.836157,-0.50742 1.314648,-1.44819 1.314648,-2.40554 0,-0.61481 -0.251037,-1.17459 -0.609265,-1.66915 0.08767,-0.110624 0.18963,-0.206066 0.258899,-0.344167 v -0.0021 l 0.0021,-0.0016 c 0.168983,-0.339751 0.24443,-0.715003 0.24443,-1.085205 0,-0.896268 -0.57957,-1.816062 -1.449008,-2.165759 -0.607214,-0.24937 -1.265871,-0.300239 -2.113049,-0.30024 -0.543782,10e-7 -1.071437,0.07301 -1.567346,0.22996 l -0.187586,0.05943 c -0.08247,-0.05532 -0.177039,-0.103539 -0.28577,-0.141077 l -0.122473,-0.04186 -0.132292,-0.01137 c -0.309606,-0.02734 -0.582166,-0.04738 -0.825789,-0.05891 -0.04862,-0.02206 -0.099,-0.03411 -0.150896,-0.03411 h -0.615466 c -0.02966,-0.0014 -0.06147,-0.0021 -0.101286,-0.0021 H 41.92312 v 0.0021 h -0.07648 c 0.0086,-0.0024 0.01578,-0.0049 0.0067,-0.0041 z m -0.108003,0.0186 c -0.05252,0.01526 -0.102859,0.04267 -0.150896,0.08062 -0.0011,-0.0027 -0.01395,-0.03669 -0.01395,-0.03669 -2.14e-4,7.6e-5 0.127098,-0.03705 0.152445,-0.04186 0.0062,-0.0012 0.0067,-0.001 0.0124,-0.0021 z" />
      <rect
         style="fill:#ffffff;fill-opacity:1;stroke:#ffffff;stroke-width:1.8;stroke-linecap:square;stroke-dasharray:none;stroke-opacity:1"
         id="rect1991"
         width="3.4159133"
         height="3.6471944"
         x="21.173161"
         y="108.11628"
         ry="0.6471132" />
      <path
         id="path990"
         style="color:#000000;font-weight:bold;font-size:14.4426px;font-family:Coaster;-inkscape-font-specification:'Coaster Bold';text-align:center;text-anchor:middle;fill:#000000;stroke:none;stroke-width:2;stroke-linecap:butt"
         d="m 24.526668,104.21689 v 0.002 c -0.927083,0 -1.834692,0.15277 -2.698026,0.45476 h -0.0021 l -0.0026,0.002 c -0.120068,0.0427 -0.212901,0.0755 -0.282153,0.10077 -0.06925,0.0252 -0.0083,-0.0114 -0.204639,0.0822 l -0.04392,0.0207 -0.04237,0.0248 c -0.458751,0.27423 -0.877982,0.83061 -0.877982,1.41594 0,0.43124 0.126585,0.76583 0.300757,1.16272 l 0.0041,0.01 0.0062,0.0119 c 0.130887,0.2796 0.148311,0.47353 0.148311,0.37827 0,0.11955 0.0056,0.16984 0.01395,0.27027 v 0.28577 l -0.04444,2.87735 c -0.01976,0.91164 -0.02997,1.68089 -0.02997,2.30838 0,0.41852 0.01,0.90174 0.02997,1.45418 0.0049,0.19825 0.01053,0.35373 0.01602,0.46819 0.0028,0.0587 0.0055,0.10566 0.01033,0.15813 0.0024,0.0262 0.0036,0.0514 0.01189,0.10076 0.0013,0.008 0.0065,0.0276 0.0083,0.0377 1.38e-4,7.1e-4 0.0015,10e-4 0.0021,0.002 1.37e-4,6.9e-4 3.78e-4,0.001 5.17e-4,0.002 0.0034,0.0189 0.0046,0.0343 0.0155,0.0718 0.0015,0.005 0.0039,0.0128 0.0057,0.0186 0.171983,0.64229 0.803043,1.27103 1.501717,1.39009 0.386974,0.0656 0.824816,0.0858 1.380794,0.0858 0.827764,0 1.59731,-0.0663 2.30942,-0.20361 0.416828,-0.0799 0.804558,-0.22807 1.159619,-0.43357 h 1.504818 c 0.09162,0.13032 0.20609,0.24795 0.344165,0.34159 l 0.03411,0.0227 0.03411,0.0191 c 0.527841,0.30071 0.898258,0.26614 1.403015,0.26614 0.504615,0 1.009207,-0.0631 1.505335,-0.18655 l 0.102319,-0.0264 0.312126,-0.14728 c 0.152302,-0.0536 0.320247,-0.12373 0.49661,-0.28939 H 33.2481 l 0.0016,0.005 0.302824,0.19016 c 0.52939,0.32986 1.156173,0.45476 1.808158,0.45476 0.588911,0 1.159371,-0.0871 1.693437,-0.2682 0.16927,-0.0574 0.345722,-0.13864 0.510046,-0.25839 0.05718,0.0508 0.118081,0.0963 0.181901,0.13488 0.346374,0.20927 0.692398,0.25115 1.009758,0.25115 0.16696,0 0.298249,-0.0127 0.543636,-0.032 l -0.0021,0.002 c 0.240522,-0.0183 0.431513,-0.0269 0.376721,-0.0269 0.40938,0 0.761877,-0.0223 1.132231,-0.14262 0.138987,-0.0451 0.262517,-0.1673 0.382922,-0.30955 h 0.579293 c 0.160084,0.14967 0.336359,0.28227 0.535368,0.38551 0.355483,0.18827 0.738253,0.25167 1.106392,0.25167 0.648762,0 1.274238,-0.24094 1.770952,-0.63718 h 1.836063 c 0.158827,0.21556 0.362474,0.39902 0.608232,0.52297 l 0.226859,0.11421 h 0.759644 c 0.494307,0 0.883824,-0.004 1.176672,-0.0114 0.284614,-0.007 0.374951,0.012 0.693498,-0.0553 0.416689,-0.0798 0.839556,-0.25934 1.159619,-0.57051 h 1.846916 c 0.35398,0.31208 0.829545,0.51679 1.286743,0.54933 h 0.0062 0.0057 c 0.4413,0.0267 0.763931,0.0472 0.98857,0.0646 0.01039,0.001 0.01931,0.003 0.0279,0.005 l 0.09819,0.031 h 0.180351 c 1.681821,0 2.991589,-0.21067 3.940845,-0.95343 l 0.0021,-0.002 c 0.550218,-0.42936 0.947658,-1.01665 1.212846,-1.69189 0.238099,-0.60032 0.362768,-1.22646 0.362768,-1.85932 0,-0.981 -0.404062,-1.92905 -1.094507,-2.75383 -0.08199,-0.0995 -0.245167,-0.23976 -0.406693,-0.37621 -0.0054,-0.10334 -0.01548,-0.20517 -0.02791,-0.30644 0.242348,-0.0596 0.476702,-0.15569 0.637171,-0.32039 0.266662,-0.27371 0.381652,-0.57651 0.451135,-0.86972 v -0.002 -0.002 c 0.09913,-0.42354 0.144177,-0.87621 0.144177,-1.36426 0,-0.97324 -0.222652,-1.89877 -1.046447,-2.42673 l -0.160197,-0.10283 -0.190686,-0.0398 c -0.492147,-0.10389 -1.024397,-0.10852 -1.898076,-0.10852 0.04575,0 -0.09504,-0.004 -0.268717,-0.0134 l 0.0041,0.002 c -0.173857,-0.01 -0.269432,-0.0171 -0.387057,-0.0171 -0.335749,0 -0.453557,0.0462 -0.749825,0.10646 -1.004223,0.20564 -1.892207,0.6536 -2.562117,1.31671 -0.0065,-0.086 -0.01491,-0.17287 -0.04547,-0.25993 -0.107512,-0.30623 -0.358271,-0.69059 -0.803569,-0.87178 l -0.01033,-0.004 -0.0078,-0.004 c -0.472189,-0.18175 -0.841796,-0.19094 -1.449524,-0.22841 -0.607726,-0.0375 -1.389378,-0.0553 -2.361096,-0.0553 -1.020478,0 -1.80151,0.0172 -2.373498,0.0553 -0.285994,0.0191 -0.514353,0.0414 -0.731222,0.0816 -0.108434,0.0201 -0.212912,0.0423 -0.348816,0.093 -0.08822,0.0329 -0.240873,0.17963 -0.378788,0.29508 -0.230923,0.20291 -0.393654,0.42854 -0.482141,0.64337 h -5.17e-4 c -0.692055,-0.57546 -1.591933,-0.91853 -2.610693,-1.07125 h -0.0021 -0.0021 c -0.404681,-0.0591 -0.670567,-0.0971 -0.955498,-0.0972 h -5.16e-4 c -0.173182,3e-5 -0.333799,0.0117 -0.731222,0.0305 l -0.06821,0.002 -0.06615,0.0114 c -0.103305,0.0178 -0.210514,0.0368 -0.324528,0.0548 h -0.0083 l -0.170532,0.0305 c -0.647354,0.10065 -0.935338,0.13554 -1.242301,0.21497 h -0.0026 l -0.0036,0.002 c -0.553023,0.14654 -1.060268,0.39407 -1.457275,0.77101 -0.101041,0.0959 -0.192375,0.20796 -0.270784,0.33021 h -0.303858 c -7.53e-4,-0.012 -0.0019,-0.0253 -0.0026,-0.0372 l -0.0098,-0.18655 -0.0863,-0.17105 c -0.18252,-0.36826 -0.530587,-0.6729 -0.900203,-0.83199 -0.369619,-0.15909 -0.748365,-0.20515 -1.138432,-0.20515 l -0.04237,-5.2e-4 -0.976168,0.0724 h -0.0036 c -1.14685,0.0925 -2.146872,0.3314 -2.991032,0.76119 l 0.0041,-0.004 c -0.09054,0.0455 -0.163856,0.0833 -0.230477,0.11989 -0.0614,0.0337 -0.07759,0.0137 -0.272334,0.19224 -0.09574,0.0859 -0.178388,0.18466 -0.249598,0.29042 h -1.557527 c -0.01826,-0.0229 -0.03591,-0.0463 -0.05478,-0.0687 l -0.0062,-0.008 -0.0062,-0.008 c -0.847787,-0.96591 -2.205587,-1.36426 -3.782198,-1.36426 z" />
      <path
         d="m 28.7059,110.28771 q 0,0.91473 -0.177866,2.36423 -0.07411,0.54884 -0.118577,0.75993 -0.07411,0.35182 -0.237154,0.74586 -0.770749,1.80132 -2.31225,2.09685 -0.948614,0.18294 -2.104739,0.18294 -0.785573,0 -1.200592,-0.0704 -0.578062,-0.0985 -0.696639,-0.70364 -0.01482,-0.014 -0.02965,-0.6192 -0.02964,-0.81622 -0.02964,-1.42136 0,-0.92881 0.02964,-2.29387 l 0.04447,-2.88492 q 0,-0.14073 0,-0.32367 -0.01482,-0.19703 -0.01482,-0.23925 0,-0.26738 -0.237153,-0.774 -0.222332,-0.50661 -0.222332,-0.78807 0,-0.35182 0.400197,-0.59106 0.02964,-0.0141 0.385374,-0.14073 1.126481,-0.39404 2.341894,-0.39404 2.104741,0 2.994068,1.01324 0.118576,0.14073 0.326086,0.46441 0.859683,1.37913 0.859683,3.61671 z m -2.697626,0.50662 q 0,-0.95695 -0.35573,-1.84354 -0.163044,-0.40811 -0.533596,-0.40811 -0.133399,0 -0.28162,0.0844 -0.222332,0.12665 -0.222332,2.33608 0,1.09769 0.02964,1.35099 0.02964,0.0985 0.148221,0.19702 0.296443,0.0703 0.41502,0.0703 0.800393,0 0.800393,-1.78724 z"
         id="path1752"
         style="font-weight:bold;font-size:14.4426px;font-family:Coaster;-inkscape-font-specification:'Coaster Bold';text-align:center;text-anchor:middle;fill:#ffffff;stroke:#000000;stroke-width:0;stroke-linecap:round" />
      <path
         d="m 37.124849,115.7761 q 0,0.32367 -0.41502,0.46441 -0.622528,0.21109 -1.348811,0.21109 -0.770751,0 -1.245058,-0.29553 -0.118578,-0.35182 -0.163044,-0.90066 -0.04447,-0.61921 -0.118576,-0.90066 -0.20751,-0.14073 -0.518774,-0.14073 -0.103756,0 -0.666995,0.0845 -0.08894,0.19702 -0.237154,0.98509 -0.07411,0.37997 -0.133399,0.75993 -0.05929,0.0704 -0.222332,0.12666 l -0.266798,0.12666 q -0.622528,0.1548 -1.245058,0.1548 -0.652173,0 -0.874504,-0.12666 -0.207509,-0.14073 -0.207509,-0.4644 0.01482,-0.11258 0.103754,-0.77401 0.07411,-0.54884 0.518774,-2.47681 l 0.548418,-2.35016 q 0.340909,-1.50579 0.340909,-2.30794 0,-0.22516 -0.163044,-0.66143 -0.148221,-0.45032 -0.148221,-0.67549 0,-0.33774 0.222332,-0.53476 0.02964,-0.0282 0.281621,-0.15481 1.022725,-0.52068 2.593869,-0.64734 l 0.933794,-0.0704 q 0.874504,0 1.111658,0.47848 0.118576,1.94205 0.503951,4.57366 l 0.681818,4.54551 q 0.133399,0.91474 0.133399,0.97103 z m -3.468375,-5.29138 q 0,-0.26737 -0.05929,-0.78807 -0.05929,-0.53477 -0.05929,-0.80215 0,-0.18294 0.01482,-0.26738 l -0.148221,-0.0844 q -0.503952,1.57616 -0.503952,2.19535 0,0.39404 0.326087,0.39404 0.192687,0 0.385375,-0.14072 0.04447,-0.23924 0.04447,-0.50663 z"
         id="path1754"
         style="font-weight:bold;font-size:14.4426px;font-family:Coaster;-inkscape-font-specification:'Coaster Bold';text-align:center;text-anchor:middle;fill:#ffffff;stroke:#000000;stroke-width:0;stroke-linecap:round" />
      <path
         d="m 45.410414,113.58075 q 0,1.12581 -0.400197,1.87167 -0.533596,0.9851 -1.600788,0.9851 -0.370553,0 -0.607707,-0.12665 -0.741106,-0.37997 -0.978259,-1.2947 -0.118577,-0.53477 -0.370553,-1.6043 -0.01482,-0.0141 -0.163043,-0.26738 -0.103755,-0.16888 -0.237155,-0.16888 -0.207509,0 -0.266797,0.37997 -0.02965,0.16888 -0.02965,0.47847 0,0.25331 0.04447,0.75993 0.04447,0.49255 0.04447,0.74586 0,0.35183 -0.04447,0.54884 -0.08894,0.3659 -1.12648,0.3659 -0.08894,0 -0.459486,0.0282 -0.35573,0.0282 -0.459486,0.0282 -0.592885,0 -0.652173,-0.39404 -0.01482,-0.0282 -0.01482,-0.97102 0,-1.15397 0.05929,-3.47598 0.07411,-2.32202 0.07411,-3.47599 0,-0.21109 -0.177866,-0.68956 -0.163043,-0.47848 -0.163043,-0.7318 0,-0.3096 0.251975,-0.54883 0.370553,-0.35182 1.007904,-0.5207 0.163044,-0.0422 1.156125,-0.19701 l 0.163043,-0.0282 q 0.177866,-0.0282 0.340909,-0.0563 0.592884,-0.0282 0.681817,-0.0282 0.222332,0 0.800394,0.0845 1.408101,0.21109 2.193673,0.9288 0.859683,0.78808 0.859683,2.06871 0,1.15397 -0.637351,2.0687 -0.192688,0.28145 -0.755928,0.73178 -0.340908,0.28146 -0.340908,0.42219 0,0.25331 0.266798,0.45033 0.266797,0.19702 0.563239,0.19702 0.05929,0 0.177866,-0.0282 0.133399,-0.0422 0.192687,-0.0422 0.326087,0 0.48913,0.6192 0.118577,0.45034 0.118577,0.8866 z m -3.038533,-4.48923 q 0,-0.81622 -0.785572,-0.81622 -0.177865,0 -0.222332,0.014 -0.385375,0.11258 -0.385375,0.83029 v 0.37997 q 0,0.35182 0.711462,0.35182 0.311264,0 0.489129,-0.21109 0.192688,-0.22516 0.192688,-0.54884 z"
         id="path1756"
         style="font-weight:bold;font-size:14.4426px;font-family:Coaster;-inkscape-font-specification:'Coaster Bold';text-align:center;text-anchor:middle;fill:#ffffff;stroke:#000000;stroke-width:0;stroke-linecap:round" />
      <path
         d="m 53.103099,106.29103 q 0,0.18294 -0.02965,0.53477 -0.02965,0.35181 -0.02965,0.53477 v 0.47847 q 0,0.12666 0.01482,0.28146 0,0.16887 0,0.19701 0,1.05547 -0.592885,1.05547 -0.207509,0 -0.622528,-0.33775 -0.41502,-0.33775 -0.637352,-0.35182 -0.251975,0.0845 -0.251975,0.39403 0,0.78808 0.01482,2.36424 0.01482,1.56208 0.01482,2.35016 0,0.26738 0.08894,0.80214 0.103754,0.5207 0.103754,0.77401 0,0.85845 -0.904149,1.02732 -0.192687,0.0422 -1.660076,0.0422 h -0.503952 q -0.474308,-0.23923 -0.474308,-0.90065 0,-0.0563 0.01482,-0.30961 0.01482,-0.25331 0.01482,-0.33774 0,-0.0282 -0.01482,-0.11258 v -0.11259 q 0,-0.21109 0.04447,-0.71772 0.05929,-0.67549 0.07411,-0.99916 0.07411,-1.18212 0.222332,-3.47598 -0.05929,-0.0985 -0.02965,-0.43626 0.01482,-0.28146 -0.148221,-0.39404 -0.281621,0 -0.741106,0.39404 -0.444663,0.37997 -0.711461,0.37997 -0.429842,0 -0.429842,-0.9851 0,-0.0282 0.01482,-0.18295 0,-0.1548 0,-0.28145 v -0.97103 q 0,-0.12665 0,-0.29552 -0.01482,-0.16888 -0.01482,-0.2111 0,-0.90066 0.281621,-1.0836 0.133398,-0.21109 3.15711,-0.21109 2.875489,0 3.423907,0.21109 0.311265,0.12665 0.311265,0.88658 z"
         id="path1758"
         style="font-weight:bold;font-size:14.4426px;font-family:Coaster;-inkscape-font-specification:'Coaster Bold';text-align:center;text-anchor:middle;fill:#ffffff;stroke:#000000;stroke-width:0;stroke-linecap:round" />
      <path
         d="m 60.573458,112.91932 q 0,0.77401 -0.296442,1.51987 -0.326086,0.83029 -0.904148,1.28062 -0.933794,0.73179 -3.29051,0.73179 0.04447,0 -0.01482,0 -0.04447,-0.014 -0.163043,-0.0282 -0.355731,-0.0282 -1.05237,-0.0704 -0.592884,-0.0422 -0.844861,-0.50662 -0.04447,-0.49256 -0.118576,-1.05546 -0.08894,-0.63328 -0.08894,-1.04139 0,-0.71771 0.296442,-1.35099 0.207509,-0.16887 0.503951,-0.16887 0.192688,0 0.918972,0.52069 0.726283,0.50662 1.185769,0.50662 0.118576,0 0.163043,-0.014 0.222332,-0.12665 0.222332,-0.47847 0,-0.42218 -0.800394,-1.06953 -1.200592,-0.97103 -1.497034,-1.32285 -0.800394,-0.94287 -0.800394,-2.04055 0,-1.02732 0.503952,-1.68874 0.815216,-1.05546 2.327071,-1.36506 0.41502,-0.0845 0.533597,-0.0845 0.07411,0 0.326086,0.014 0.266798,0.014 0.326086,0.014 1.274702,0 1.674899,0.0845 0.592885,0.37996 0.592885,1.61837 0,0.64735 -0.118577,1.15397 -0.133399,0.56291 -0.548418,0.56291 -0.340909,0 -0.993082,-0.40811 -0.652172,-0.40812 -0.948614,-0.40812 -0.222332,0 -0.429842,0.11259 -0.05929,0.11258 -0.05929,0.25331 0,0.37997 0.874504,1.11176 1.378457,1.13989 1.645255,1.46357 0.874504,1.04138 0.874504,2.15313 z"
         id="path1760"
         style="font-weight:bold;font-size:14.4426px;font-family:Coaster;-inkscape-font-specification:'Coaster Bold';text-align:center;text-anchor:middle;fill:#ffffff;stroke:#000000;stroke-width:0;stroke-linecap:round" />
      <path
         d="m 40.219365,97.451177 q 0,0.07425 -0.0087,0.123748 l -0.41708,2.326476 q -0.139026,0.849729 -0.530038,3.052449 -0.02607,0.132 -0.06951,0.3135 -0.0087,0.0412 -0.09558,0.13199 -0.269364,0.28876 -1.016631,0.28876 h -0.20854 q -0.09558,0.008 -0.208539,0.008 -0.338877,0 -0.434457,-0.18974 -0.217229,-0.4455 -0.399701,-1.87272 -0.01737,-0.16501 -0.09558,-0.66 -0.01737,-0.0412 -0.03476,-0.0412 -0.104269,0 -0.199851,0.55275 -0.121647,0.76724 -0.251985,1.52622 -0.0782,0.4125 -0.321498,0.51975 -0.09558,0.0412 -0.686443,0.10725 -0.06083,0.008 -0.225918,0.033 h -0.356228 q -0.460524,0 -0.538727,-0.27225 -0.04344,-0.15674 -0.251986,-2.6647 -0.03476,-0.50325 -0.112958,-1.501479 -0.0782,-0.800242 -0.373634,-1.460239 -0.02607,-0.05778 -0.02607,-0.107242 0,-0.296998 0.608241,-0.453746 0.443146,-0.115498 0.868915,-0.115498 0.191161,0 0.295431,0.0083 0.02607,0.0165 0.139026,0.099 0.05213,0.04125 0.0869,0.148498 0.01737,0.428989 0.104269,2.359462 l 0.01738,0.395994 q 0.0087,0.2475 0.147717,0.2475 0.0782,0 0.147715,-0.453741 0.03476,-0.272246 0.304121,-1.682985 0.04344,-0.206241 0.139025,-0.69299 0.06083,-0.263988 0.556106,-0.346488 0.182472,-0.0083 0.530038,-0.04125 0.147716,0.0083 0.391012,0.099 0.10427,0.0825 0.130337,0.371247 0.06083,0.610488 0.251986,2.177968 0.05213,0.371249 0.05213,0.379499 0,0.20625 0.112958,0.20625 0.0087,0 0.01737,-0.008 0.0087,-0.008 0.01738,-0.008 0.0869,-0.0412 0.147716,-0.503237 0.0087,-0.107252 0.02607,-0.371245 0.06951,-0.849741 0.06951,-0.965246 0,-0.148498 -0.06951,-0.43724 -0.06083,-0.296996 -0.06083,-0.445494 0,-0.206249 0.330188,-0.354747 0.338876,-0.156747 0.868915,-0.156747 0.312809,0 0.417079,0.033 0.217229,0.07425 0.217229,0.29699 z"
         id="path1768"
         style="font-weight:bold;font-size:8.46667px;font-family:Coaster;-inkscape-font-specification:'Coaster Bold';text-align:center;text-anchor:middle;fill:#2a7fff;stroke-width:2;stroke-linecap:round" />
      <path
         d="m 44.668206,98.408169 q 0,0.618742 -0.417079,0.618742 -0.156404,0 -0.51266,-0.173248 -0.347565,-0.173248 -0.564794,-0.173248 -0.338877,0 -0.382324,-0.0078 -0.321497,0.07425 -0.321497,0.395995 0,0.148498 0.06083,0.371244 0.06951,0.0495 0.139027,0.0495 0.130337,0 0.486592,-0.140245 0.356255,-0.148498 0.51266,-0.148498 0.234607,0 0.321499,0.148498 0.05213,0.09072 0.05213,0.354748 0,0.131992 -0.01738,0.404243 -0.01738,0.264 -0.01738,0.39599 v 0.12375 q -0.01737,0.12375 -0.10427,0.26401 -0.104269,0.16499 -0.225917,0.16499 -0.260675,0 -0.634308,-0.1815 -0.234607,-0.1155 -0.382324,-0.18975 -0.173782,0 -0.173782,0.495 0,0.31349 0.130337,0.42899 0.08689,0.0743 0.295431,0.0743 0.269363,0 0.808091,-0.22274 0.538728,-0.22276 0.634308,-0.22276 0.0782,0 0.165094,0.12375 0.08689,0.12375 0.112959,0.24749 0.02607,0.12375 0.02607,0.231 0,0.066 -0.01738,0.28875 -0.01738,0.22274 -0.01738,0.28874 0,0.82499 -0.225918,1.16323 -0.217228,0.099 -0.477904,0.099 h -0.06951 q -0.03476,-0.008 -0.0782,-0.008 -0.408389,0.008 -1.624871,0.008 -0.677754,0 -0.868915,-0.0495 -0.373633,-0.099 -0.373633,-0.64349 0,-0.71774 0.03476,-2.11197 l 0.05213,-2.153215 q 0,-0.173248 -0.121648,-0.527996 -0.112959,-0.329989 -0.112959,-0.519743 0,-0.173247 0.0782,-0.321741 0.260674,-0.206247 0.860225,-0.239246 0.295432,-0.0165 0.225918,-0.0165 h 0.860227 q 0.05213,0 0.217228,0.0165 0.165094,0.0083 0.199851,0.0083 0.434457,0 1.181724,0.066 0.191162,0.066 0.225918,0.59399 0,0.0495 0.02607,0.173248 0.03476,0.189744 0.03476,0.453747 z"
         id="path1770"
         style="font-weight:bold;font-size:8.46667px;font-family:Coaster;-inkscape-font-specification:'Coaster Bold';text-align:center;text-anchor:middle;fill:#2a7fff;stroke-width:2;stroke-linecap:round" />
      <path
         d="m 49.412478,101.69162 q 0,1.07249 -0.842848,1.58398 -0.695132,0.42074 -1.894235,0.42074 -1.251238,0 -1.338129,-0.37949 -0.06951,-0.28875 -0.06951,-1.64173 0,-0.61049 0.01737,-1.49323 l 0.02607,-1.493231 q 0,-0.148498 -0.121649,-0.46199 -0.112959,-0.313493 -0.112959,-0.478497 0,-0.280489 0.269364,-0.41249 0,0 0.182472,-0.05775 0.573485,-0.181497 1.242549,-0.181497 1.173036,0 1.711762,0.222747 0.82547,0.329994 0.82547,1.27048 0,0.371255 -0.147716,0.66825 -0.08689,0.173248 -0.312809,0.404238 -0.260675,0.272246 -0.338877,0.3795 0.903672,0.54449 0.903672,1.64997 z m -1.920302,-2.499715 q 0,-0.189744 -0.10427,-0.371245 -0.165094,-0.09072 -0.20854,-0.09072 -0.260674,0 -0.260674,0.478496 0,0.329989 0.251985,0.329989 0.321499,0 0.321499,-0.346495 z m 0.147715,2.227465 q 0,-0.16499 -0.05213,-0.23924 -0.03476,-0.0412 -0.191162,-0.16499 -0.01738,0 -0.112958,-0.008 -0.09558,-0.0165 -0.130337,-0.0165 -0.10427,0 -0.173784,0.0742 0,0.0412 -0.02607,0.20624 -0.01738,0.15675 -0.01738,0.20625 0,0.17325 0.10427,0.28875 0.06951,0.0247 0.156404,0.0247 0.443147,0 0.443147,-0.37124 z"
         id="path1772"
         style="font-weight:bold;font-size:8.46667px;font-family:Coaster;-inkscape-font-specification:'Coaster Bold';text-align:center;text-anchor:middle;fill:#2a7fff;stroke-width:2;stroke-linecap:round" />
    </g>
  </g>
</svg>
